<svg width="70" height="56" viewBox="0 0 70 56" fill="none" xmlns="http://www.w3.org/2000/svg">
<g opacity="0.5">
<path d="M-13.0905 6.91075C-12.0185 2.59297 -7.90593 0.0306124 -3.90493 1.18756L11.0669 5.51688C15.0679 6.67383 17.4423 11.112 16.3702 15.4297L12.3585 31.587C11.2865 35.9048 7.17393 38.4671 3.17294 37.3102L-11.7989 32.9809C-15.7999 31.8239 -18.1743 27.3858 -17.1022 23.068L-13.0905 6.91075Z" fill="#909090"/>
<path d="M-19.2142 10.7262C-18.1422 6.40844 -14.0297 3.84607 -10.0287 5.00302L4.94319 9.33234C8.94419 10.4893 11.3186 14.9274 10.2465 19.2452L6.2348 35.4025C5.16274 39.7202 1.05021 42.2826 -2.95079 41.1257L-17.9226 36.7963C-21.9236 35.6394 -24.298 31.2012 -23.2259 26.8835L-19.2142 10.7262Z" fill="#282828"/>
<path d="M-8.04344 -13.4161C-9.1155 -9.09832 -6.74113 -4.66018 -2.74014 -3.50324L12.2317 0.826086C16.2327 1.98303 20.3452 -0.57933 21.4173 -4.89711L25.429 -21.0544C26.5011 -25.3721 24.1267 -29.8103 20.1257 -30.9672L5.15385 -35.2966C1.15285 -36.4535 -2.95968 -33.8911 -4.03174 -29.5734L-8.04344 -13.4161Z" fill="#FAFAFA"/>
<path d="M-11.579 -20.0247C-12.651 -15.7069 -10.2767 -11.2688 -6.27567 -10.1118L8.69618 -5.78249C12.6972 -4.62554 16.8097 -7.1879 17.8818 -11.5057L21.8935 -27.6629C22.9655 -31.9807 20.5912 -36.4189 16.5902 -37.5758L1.61831 -41.9051C-2.38268 -43.0621 -6.49521 -40.4997 -7.56728 -36.1819L-11.579 -20.0247Z" fill="#282828"/>
<path d="M30.2587 -19.6578C31.3307 -23.9756 35.4432 -26.538 39.4442 -25.381L54.4161 -21.0517C58.4171 -19.8947 60.7915 -15.4566 59.7194 -11.1388L55.8371 4.49723C54.765 8.81501 50.6525 11.3774 46.6515 10.2204L31.6797 5.8911C27.6787 4.73415 25.3043 0.296013 26.3764 -4.02176L30.2587 -19.6578Z" fill="#909090"/>
<path d="M36.3824 -23.4733C37.4544 -27.7911 41.567 -30.3534 45.568 -29.1965L60.5398 -24.8672C64.5408 -23.7102 66.9152 -19.2721 65.8431 -14.9543L61.9608 0.681766C60.8888 4.99954 56.7762 7.5619 52.7752 6.40496L37.8034 2.07563C33.8024 0.918689 31.428 -3.51945 32.5001 -7.83723L36.3824 -23.4733Z" fill="#282828"/>
<path d="M17.1881 32.9836C16.1161 37.3014 18.4904 41.7395 22.4914 42.8965L37.4633 47.2258C41.4643 48.3828 45.5768 45.8204 46.6489 41.5026L50.5311 25.8666C51.6032 21.5488 49.2288 17.1106 45.2278 15.9537L30.256 11.6244C26.255 10.4674 22.1425 13.0298 21.0704 17.3476L17.1881 32.9836Z" fill="#FAFAFA"/>
<path d="M20.7237 39.5922C19.6516 43.91 22.026 48.3481 26.027 49.5051L40.9988 53.8344C44.9998 54.9913 49.1123 52.429 50.1844 48.1112L54.0667 32.4751C55.1387 28.1574 52.7644 23.7192 48.7634 22.5623L33.7915 18.233C29.7905 17.076 25.678 19.6384 24.6059 23.9561L20.7237 39.5922Z" fill="#282828"/>
</g>
</svg>
