<svg width="356" height="382" viewBox="0 0 356 382" fill="none" xmlns="http://www.w3.org/2000/svg">
<path d="M41.228 187.246C45.4809 204.375 61.7951 214.54 77.667 209.95L137.06 192.776C152.932 188.186 162.351 170.58 158.098 153.452L142.184 89.3563C137.931 72.2278 121.617 62.063 105.745 66.6526L46.3518 83.8269C30.4799 88.4165 21.0609 106.022 25.3137 123.151L41.228 187.246Z" fill="#333333"/>
<path d="M16.9353 172.111C21.1882 189.239 37.5025 199.404 53.3743 194.814L112.767 177.64C128.639 173.05 138.058 155.444 133.805 138.316L117.891 74.2205C113.638 57.092 97.3239 46.9272 81.4521 51.5167L22.0591 68.6911C6.18727 73.2806 -3.2318 90.8866 1.02105 108.015L16.9353 172.111Z" fill="#282828"/>
<path d="M61.2496 267.883C56.9967 250.754 66.4158 233.148 82.2877 228.559L141.681 211.384C157.552 206.795 173.867 216.96 178.12 234.088L194.034 298.184C198.287 315.312 188.868 332.918 172.996 337.508L113.603 354.682C97.731 359.272 81.4167 349.107 77.1639 331.978L61.2496 267.883Z" fill="#3a3a3a"/>
<path d="M47.2242 294.099C42.9714 276.97 52.3904 259.364 68.2623 254.775L127.655 237.6C143.527 233.011 159.841 243.176 164.094 260.304L180.009 324.4C184.261 341.528 174.842 359.134 158.97 363.724L99.5775 380.898C83.7057 385.488 67.3914 375.323 63.1385 358.194L47.2242 294.099Z" fill="#282828"/>
<path d="M213.193 292.643C217.446 309.772 233.76 319.937 249.632 315.347L309.025 298.173C324.897 293.583 334.316 275.977 330.063 258.849L314.662 196.821C310.409 179.692 294.095 169.527 278.223 174.117L218.83 191.291C202.958 195.881 193.539 213.487 197.792 230.615L213.193 292.643Z" fill="#333333"/>
<path d="M237.486 307.779C241.739 324.908 258.053 335.072 273.925 330.483L333.318 313.309C349.19 308.719 358.609 291.113 354.356 273.984L338.955 211.957C334.702 194.828 318.388 184.663 302.516 189.253L243.123 206.427C227.251 211.017 217.832 228.623 222.085 245.751L237.486 307.779Z" fill="#282828"/>
<path d="M161.343 83.8165C157.09 66.688 166.509 49.082 182.381 44.4924L241.774 27.3181C257.646 22.7285 273.96 32.8933 278.213 50.0218L293.614 112.05C297.866 129.178 288.447 146.784 272.576 151.374L213.183 168.548C197.311 173.138 180.996 162.973 176.744 145.844L161.343 83.8165Z" fill="#3a3a3a"/>
<path d="M175.368 57.6004C171.115 40.4719 180.534 22.8659 196.406 18.2764L255.799 1.10203C271.671 -3.48754 287.985 6.67728 292.238 23.8058L307.639 85.8336C311.892 102.962 302.473 120.568 286.601 125.158L227.208 142.332C211.336 146.922 195.022 136.757 190.769 119.628L175.368 57.6004Z" fill="#282828"/>
</svg>
