<svg width="155" height="152" viewBox="0 0 155 152" fill="none" xmlns="http://www.w3.org/2000/svg">
<path d="M79.0178 141.932C79.0178 141.932 81.3565 141.364 98.0775 132.99C114.798 124.615 117.294 106.262 117.529 101.88C117.764 97.4978 117.415 88.5621 114.618 81.2367C111.821 73.9113 105.709 63.7746 91.3325 57.0827C76.9563 50.3909 59.8375 51.9879 59.8375 51.9879C59.8375 51.9879 48.5475 45.2301 39.759 49.3086C30.9706 53.387 22.5197 66.0052 19.7891 70.275C17.0585 74.5449 16.8234 81.1113 16.8234 81.1113C16.8234 81.1113 15.2502 82.7678 10.1266 83.6587C6.75312 84.1597 3.32547 84.0078 0 83.21L6.92588 87.8296L4.76793 96.1119C4.76793 96.1119 9.48767 90.4364 10.651 89.1627C11.8144 87.889 18.5655 85.9157 18.5655 85.9157C18.5655 85.9157 19.0899 87.0641 21.941 89.4861C24.7921 91.9081 33.0441 93.9539 47.354 95.2342C61.6639 96.5145 66.9924 83.5531 67.9026 81.1311C68.8128 78.7091 69.3372 77.8314 70.2474 77.8314C74.0835 77.6129 77.9037 78.5131 81.318 80.4401C84.7323 82.3672 87.6182 85.2519 89.6808 88.7997C89.6808 88.7997 94.4006 96.9434 90.5127 103.899C86.6248 110.855 70.6211 119.019 65.0816 122.101C52.9719 128.832 43.876 141.952 41.5252 160.681C39.1744 179.41 43.8459 185 43.8459 185C43.8459 185 56.474 152.9 79.0178 141.932Z" fill="#282828"/>
<path d="M51.8544 88.3628C54.2816 87.738 55.9424 85.802 55.5637 84.0387C55.185 82.2753 52.9104 81.3523 50.4831 81.977C48.0559 82.6018 46.3951 84.5378 46.7738 86.3012C47.1524 88.0645 49.4271 88.9876 51.8544 88.3628Z" fill="white"/>
<path d="M145.723 118C150.753 118 154.831 113.523 154.831 108C154.831 102.477 150.753 98 145.723 98C140.693 98 136.615 102.477 136.615 108C136.615 113.523 140.693 118 145.723 118Z" fill="#282828"/>
<path d="M81.9693 24C88.0053 24 92.8985 18.6274 92.8985 12C92.8985 5.37258 88.0053 0 81.9693 0C75.9332 0 71.04 5.37258 71.04 12C71.04 18.6274 75.9332 24 81.9693 24Z" fill="#282828"/>
</svg>
