<svg width="90" height="97" viewBox="0 0 90 97" fill="none" xmlns="http://www.w3.org/2000/svg">
<g opacity="0.5">
<path d="M79.5588 47.4209C78.4818 51.7587 74.3501 54.333 70.3305 53.1707L55.289 48.8212C51.2694 47.6589 48.884 43.2001 49.9611 38.8623L53.9914 22.6299C55.0685 18.2921 59.2001 15.7178 63.2197 16.8801L78.2612 21.2296C82.2808 22.3919 84.6662 26.8507 83.5891 31.1885L79.5588 47.4209Z" fill="#909090"/>
<path d="M85.711 43.5877C84.6339 47.9255 80.5023 50.4998 76.4827 49.3375L61.4412 44.988C57.4216 43.8257 55.0362 39.3669 56.1133 35.0291L60.1436 18.7967C61.2207 14.4589 65.3523 11.8846 69.3719 13.0469L84.4134 17.3964C88.433 18.5587 90.8184 23.0175 89.7413 27.3553L85.711 43.5877Z" fill="#282828"/>
<path d="M74.4885 67.8422C75.5655 63.5044 73.1801 59.0456 69.1605 57.8833L54.1191 53.5338C50.0995 52.3715 45.9678 54.9458 44.8908 59.2836L40.8604 75.516C39.7834 79.8539 42.1688 84.3126 46.1884 85.475L61.2299 89.8244C65.2495 90.9868 69.3811 88.4125 70.4582 84.0746L74.4885 67.8422Z" fill="#FAFAFA"/>
<path d="M78.0405 74.4815C79.1175 70.1437 76.7321 65.6849 72.7125 64.5226L57.6711 60.1731C53.6515 59.0108 49.5198 61.5851 48.4428 65.9229L44.4124 82.1553C43.3354 86.4932 45.7208 90.9519 49.7404 92.1143L64.7818 96.4637C68.8014 97.626 72.9331 95.0518 74.0101 90.7139L78.0405 74.4815Z" fill="#282828"/>
<path d="M36.0083 74.113C34.9313 78.4508 30.7996 81.0251 26.78 79.8628L11.7386 75.5133C7.71897 74.351 5.33356 69.8922 6.41061 65.5544L10.3109 49.8456C11.388 45.5078 15.5196 42.9335 19.5392 44.0958L34.5807 48.4453C38.6003 49.6076 40.9857 54.0664 39.9087 58.4042L36.0083 74.113Z" fill="#909090"/>
<path d="M29.8561 77.9462C28.7791 82.284 24.6474 84.8583 20.6278 83.696L5.58638 79.3465C1.56678 78.1842 -0.818631 73.7254 0.258417 69.3876L4.15875 53.6788C5.2358 49.341 9.36745 46.7667 13.387 47.929L28.4285 52.2785C32.4481 53.4408 34.8335 57.8996 33.7565 62.2374L29.8561 77.9462Z" fill="#282828"/>
<path d="M49.1396 21.2268C50.2167 16.8889 47.8313 12.4302 43.8117 11.2678L28.7702 6.91839C24.7506 5.75606 20.619 8.33034 19.5419 12.6682L15.6416 28.3769C14.5645 32.7148 16.9499 37.1736 20.9695 38.3359L36.011 42.6853C40.0306 43.8477 44.1622 41.2734 45.2393 36.9355L49.1396 21.2268Z" fill="#FAFAFA"/>
<path d="M45.5877 14.5875C46.6647 10.2496 44.2793 5.79086 40.2597 4.62854L25.2182 0.279088C21.1986 -0.883237 17.067 1.69104 15.9899 6.02889L12.0896 21.7376C11.0126 26.0755 13.398 30.5343 17.4176 31.6966L32.459 36.046C36.4786 37.2084 40.6103 34.6341 41.6873 30.2962L45.5877 14.5875Z" fill="#282828"/>
</g>
</svg>
