<svg width="768" height="344" viewBox="0 0 768 344" fill="none" xmlns="http://www.w3.org/2000/svg">
<path d="M0 165.978V135.294H9.87149C16.4525 135.294 21.7447 133.429 25.7755 129.7C29.8064 125.971 31.8081 121.035 31.8081 114.893V2.63232H65.7825V113.357C65.7825 123.887 63.5065 133.1 58.9821 140.97C54.4577 148.84 47.9863 155.01 39.5681 159.397C31.15 163.784 21.2511 165.978 9.87149 165.978H0Z" fill="black"/>
<path d="M128.686 168.61C115.826 168.61 105.625 165.539 98.112 159.397C90.5713 153.255 86.8147 144.782 86.8147 133.978C86.8147 123.887 90.3245 115.551 97.3443 108.97C104.364 102.389 115.031 97.947 129.344 95.5888L162.441 90.324V74.749H99.9493V46.2314H195.319V165.95H164.635V154.763C155.559 163.976 143.576 168.583 128.686 168.583V168.61ZM120.789 132.854C120.789 136.501 122.188 139.352 124.957 141.409C127.727 143.465 131.154 144.48 135.267 144.48C143.439 144.48 150.02 141.93 155.01 136.802C159.973 131.675 162.469 125.477 162.469 118.156V114.427L135.267 119.253C130.578 120.13 127.014 121.639 124.518 123.75C122.023 125.861 120.789 128.905 120.789 132.854Z" fill="black"/>
<path d="M219.475 165.978V0H252.352V89.4465L292.907 46.2588H333.463L290.056 94.4919L333.243 165.978H295.979L265.487 114.893L252.325 129.371V165.978H219.447H219.475Z" fill="black"/>
<path d="M384.987 168.61C372.126 168.61 361.926 165.539 354.412 159.397C346.872 153.255 343.115 144.782 343.115 133.978C343.115 123.887 346.625 115.551 353.645 108.97C360.664 102.389 371.331 97.9471 385.645 95.589L418.742 90.3241V87.0336C418.742 82.5092 416.959 78.6978 413.367 75.6266C409.775 72.5555 404.921 71.0199 398.779 71.0199C392.637 71.0199 387.783 72.6377 383.314 75.846C378.844 79.0542 375.609 83.3045 373.552 88.5692L347.228 76.0653C350.738 66.139 357.292 58.2418 366.861 52.3738C376.431 46.5332 387.592 43.5991 400.287 43.5991C410.378 43.5991 419.29 45.4363 427.023 49.0833C434.783 52.7302 440.788 57.8305 445.12 64.3292C449.425 70.8279 451.592 78.3961 451.592 87.0336V139.654H464.754V165.978H420.908V154.79C411.832 164.004 399.849 168.61 384.959 168.61H384.987ZM377.117 132.854C377.117 136.501 378.515 139.352 381.285 141.409C384.054 143.466 387.482 144.48 391.595 144.48C399.766 144.48 406.347 141.93 411.338 136.802C416.301 131.675 418.796 125.478 418.796 118.156V114.427L391.595 119.253C386.906 120.13 383.341 121.639 380.846 123.75C378.351 125.861 377.117 128.905 377.117 132.854Z" fill="black"/>
<path d="M483.016 165.978V46.259H513.7V64.247C516.771 56.7886 521.131 51.7157 526.753 49.0011C532.374 46.2864 538.845 44.9429 546.166 44.9429H553.186V73.433H542.876C534.842 73.433 528.343 75.8734 523.352 80.7817C518.389 85.6901 515.894 92.6001 515.894 101.512V165.978H483.016Z" fill="black"/>
<path d="M629.69 167.294C615.211 167.294 603.996 163.373 596.044 155.558C588.065 147.743 584.089 136.802 584.089 122.79V74.7765H563.907V46.259H565.004C577.727 46.259 584.089 40.1167 584.089 27.8322V19.0576H616.966V46.2316H645.018V74.7492H616.966V120.569C616.966 132.689 623.767 138.777 637.367 138.777C639.424 138.777 641.974 138.557 645.045 138.119V165.951C642.852 166.252 640.356 166.526 637.587 166.828C634.817 167.13 632.185 167.267 629.69 167.267V167.294Z" fill="black"/>
<path d="M701.368 168.61C688.507 168.61 678.307 165.539 670.793 159.397C663.28 153.255 659.496 144.782 659.496 133.978C659.496 123.887 663.006 115.551 670.026 108.97C677.045 102.389 687.712 97.947 702.026 95.5888L734.684 90.324C733.806 85.4979 731.503 81.7139 727.774 78.917C724.045 76.1475 719.109 74.749 712.966 74.749H672.63V46.2314H715.16C731.53 46.2314 744.418 50.4268 753.851 58.8449C763.284 67.2631 768 78.6976 768 93.1483V165.95H737.289V154.763C728.24 163.976 716.23 168.583 701.34 168.583L701.368 168.61ZM693.47 132.854C693.47 136.501 694.869 139.352 697.638 141.409C700.408 143.465 703.863 144.48 707.948 144.48C716.147 144.48 722.701 141.93 727.691 136.802C732.655 131.675 735.15 125.477 735.15 118.156V114.427L707.948 119.253C703.259 120.13 699.695 121.639 697.2 123.75C694.704 125.861 693.47 128.905 693.47 132.854Z" fill="black"/>
<path d="M0.97998 340.86V317.36L40.14 277.02C47.84 269.06 53.68 262.76 57.67 258.12C61.65 253.49 64.39 249.6 65.89 246.47C67.39 243.34 68.14 240.27 68.14 237.27C68.14 231.92 66.41 227.71 62.95 224.64C59.49 221.57 55.15 220.04 49.93 220.04C44.71 220.04 39.81 221.58 35.64 224.64C31.46 227.71 28.39 232.37 26.44 238.64L0 230.02C1.57 222.45 4.82998 215.86 9.78998 210.24C14.75 204.63 20.76 200.29 27.8 197.22C34.85 194.15 42.22 192.62 49.93 192.62C59.59 192.62 68.07 194.32 75.39 197.71C82.7 201.11 88.38 205.87 92.43 212C96.47 218.14 98.5 225.32 98.5 233.54C98.5 241.76 96.44 249.17 92.33 256.55C88.22 263.93 81.79 272.05 73.04 280.93L39.56 315.39H99.87V340.85H0.97998V340.86Z" fill="black"/>
<path d="M181.91 343.21C170.29 343.21 160.08 340.08 151.27 333.81C142.46 327.54 135.57 318.73 130.61 307.37C125.65 296.01 123.17 282.83 123.17 267.81C123.17 252.79 125.62 239.48 130.51 228.25C135.41 217.02 142.26 208.28 151.07 202.01C159.88 195.74 170.09 192.61 181.72 192.61C193.35 192.61 203.94 195.74 212.76 202.01C221.57 208.28 228.43 217.06 233.32 228.35C238.22 239.64 240.66 252.8 240.66 267.81C240.66 282.82 238.21 295.98 233.32 307.27C228.43 318.56 221.57 327.37 212.76 333.71C203.95 340.04 193.67 343.21 181.92 343.21H181.91ZM181.91 315.8C191.05 315.8 198.07 311.56 202.96 303.07C207.86 294.59 210.3 282.84 210.3 267.82C210.3 252.8 207.85 241.09 202.96 232.67C198.06 224.25 190.98 220.04 181.71 220.04C172.44 220.04 165.75 224.22 160.86 232.57C155.96 240.93 153.52 252.67 153.52 267.82C153.52 282.97 156 294.58 160.96 303.07C165.92 311.56 172.9 315.8 181.91 315.8Z" fill="black"/>
<path d="M262.59 340.86V317.36L301.75 277.02C309.45 269.06 315.29 262.76 319.28 258.12C323.26 253.49 326 249.6 327.5 246.47C329 243.34 329.75 240.27 329.75 237.27C329.75 231.92 328.02 227.71 324.56 224.64C321.1 221.57 316.76 220.04 311.54 220.04C306.32 220.04 301.42 221.58 297.25 224.64C293.07 227.71 290 232.37 288.05 238.64L261.61 230.02C263.18 222.45 266.44 215.86 271.4 210.24C276.36 204.63 282.37 200.29 289.42 197.22C296.47 194.15 303.84 192.62 311.55 192.62C321.21 192.62 329.69 194.32 337.01 197.71C344.32 201.11 350 205.87 354.05 212C358.09 218.14 360.12 225.32 360.12 233.54C360.12 241.76 358.06 249.17 353.95 256.55C349.84 263.93 343.41 272.05 334.66 280.93L301.17 315.39H361.48V340.85H262.59V340.86Z" fill="black"/>
<path d="M434.12 343.21C424.07 343.21 415.13 341.09 407.29 336.85C399.46 332.61 393.32 326.83 388.88 319.52C384.44 312.21 382.22 303.99 382.22 294.85C382.22 290.28 382.68 285.71 383.59 281.14C384.5 276.57 386.33 271.54 389.07 266.06C391.81 260.58 395.92 254.31 401.41 247.26L441.94 194.98H478.17L437.24 247.26H439.59C448.6 247.26 456.59 249.29 463.58 253.33C470.56 257.38 476.04 262.89 480.03 269.88C484.01 276.87 486 284.73 486 293.48C486 303.01 483.78 311.53 479.34 319.03C474.9 326.54 468.8 332.44 461.03 336.75C453.26 341.06 444.29 343.21 434.1 343.21H434.12ZM434.12 315.8C440.12 315.8 445.21 313.78 449.39 309.73C453.57 305.69 455.66 300.4 455.66 293.87C455.66 287.34 453.57 282.09 449.39 278.11C445.21 274.13 440.12 272.14 434.12 272.14C428.12 272.14 423.02 274.13 418.85 278.11C414.67 282.09 412.58 287.35 412.58 293.87C412.58 300.39 414.67 305.69 418.85 309.73C423.03 313.78 428.12 315.8 434.12 315.8Z" fill="black"/>
</svg>
