<svg width="202" height="162" viewBox="0 0 202 162" fill="none" xmlns="http://www.w3.org/2000/svg">
<path d="M99.2101 37.3795C95.5912 31.2915 90.6183 26.6936 84.2915 23.5938C77.9574 20.4901 70.6973 18.9402 62.5076 18.9402H16.8701V121.627C16.6967 124.823 15.6453 127.432 13.7012 129.444C11.5615 131.656 8.74678 132.759 5.24586 132.759H0V162H14.3874C20.4522 162 25.7165 160.701 30.1877 158.099C34.6551 155.498 38.097 151.86 40.506 147.178C42.4833 143.338 43.697 139.967 44.1213 130.799C44.2615 127.775 44.1213 118.687 44.1213 118.687V100.801H62.5076C70.5903 100.801 77.7988 99.2235 84.1292 96.064C90.456 92.9045 95.4584 88.2827 99.129 82.1907C102.8 76.1027 104.633 68.692 104.633 59.9584C104.633 51.2248 102.822 43.4714 99.2101 37.3834V37.3795Z" fill="#FAFAFA"/>
<path d="M74.8225 58.7229C78.2331 58.7229 80.998 55.7368 80.998 52.0532C80.998 48.3697 78.2331 45.3835 74.8225 45.3835C71.4118 45.3835 68.647 48.3697 68.647 52.0532C68.647 55.7368 71.4118 58.7229 74.8225 58.7229Z" fill="#FAFAFA"/>
<path d="M99.3401 101.192L91.3791 100.901L91.8033 108.778L74.4536 93.295L81.2599 85.8843L99.3401 101.192Z" fill="#FAFAFA"/>
<path d="M50.373 42.1371C50.4948 33.8219 56.8363 27.1881 64.5354 27.3195" stroke="#282828" stroke-width="3" stroke-miterlimit="10"/>
<path d="M73.4202 34.9216C81.2586 34.9217 87.6614 41.794 87.6614 50.3328C87.6612 58.8714 81.2585 65.7429 73.4202 65.7429C65.5818 65.7429 59.1792 58.8714 59.179 50.3328C59.179 41.7939 65.5817 34.9216 73.4202 34.9216Z" fill="#282828" stroke="#282828" stroke-width="0.75"/>
<path d="M79.5996 38.3875C82.7764 38.3876 85.3994 41.1783 85.3994 44.6824C85.3993 48.1863 82.7763 50.9771 79.5996 50.9773C76.4228 50.9773 73.7989 48.1864 73.7988 44.6824C73.7988 41.1782 76.4227 38.3875 79.5996 38.3875Z" fill="#FAFAFA" stroke="#282828" stroke-width="0.75"/>
<rect x="114.316" width="87" height="41" rx="20" fill="#FAFAFA"/>
<path d="M141.118 18.3636C141.058 17.8598 140.816 17.4688 140.392 17.1903C139.967 16.9119 139.447 16.7727 138.831 16.7727C138.38 16.7727 137.985 16.8456 137.647 16.9915C137.313 17.1373 137.051 17.3378 136.862 17.593C136.676 17.8482 136.583 18.1383 136.583 18.4631C136.583 18.7348 136.648 18.9685 136.777 19.1641C136.91 19.3563 137.079 19.517 137.284 19.6463C137.49 19.7723 137.705 19.8767 137.931 19.9595C138.156 20.0391 138.363 20.1037 138.552 20.1534L139.586 20.4318C139.851 20.5014 140.146 20.5975 140.471 20.7202C140.799 20.8428 141.113 21.0102 141.411 21.2223C141.712 21.4311 141.961 21.6996 142.157 22.0277C142.352 22.3558 142.45 22.7585 142.45 23.2358C142.45 23.786 142.306 24.2831 142.017 24.7273C141.732 25.1714 141.315 25.5244 140.765 25.7862C140.218 26.0481 139.553 26.179 138.771 26.179C138.042 26.179 137.41 26.0613 136.877 25.826C136.346 25.5907 135.929 25.2625 135.624 24.8416C135.322 24.4207 135.152 23.9318 135.112 23.375H136.385C136.418 23.7595 136.547 24.0777 136.772 24.3295C137.001 24.5781 137.289 24.7637 137.637 24.8864C137.989 25.0057 138.367 25.0653 138.771 25.0653C139.242 25.0653 139.664 24.9891 140.039 24.8366C140.413 24.6809 140.71 24.4654 140.929 24.1903C141.147 23.9119 141.257 23.5871 141.257 23.2159C141.257 22.8778 141.162 22.6027 140.973 22.3906C140.784 22.1785 140.536 22.0062 140.228 21.8736C139.919 21.741 139.586 21.625 139.228 21.5256L137.975 21.1676C137.18 20.9389 136.55 20.6125 136.086 20.1882C135.622 19.764 135.39 19.2088 135.39 18.5227C135.39 17.9527 135.544 17.4555 135.853 17.0312C136.164 16.6037 136.582 16.2723 137.105 16.0369C137.632 15.7983 138.221 15.679 138.87 15.679C139.527 15.679 140.11 15.7966 140.62 16.032C141.131 16.264 141.535 16.5821 141.833 16.9865C142.135 17.3909 142.294 17.8499 142.311 18.3636H141.118ZM147.42 26.1591C146.731 26.1591 146.126 25.995 145.606 25.6669C145.089 25.3388 144.684 24.8797 144.393 24.2898C144.104 23.6998 143.96 23.0104 143.96 22.2216C143.96 21.4261 144.104 20.7318 144.393 20.1385C144.684 19.5452 145.089 19.0845 145.606 18.7564C146.126 18.4283 146.731 18.2642 147.42 18.2642C148.11 18.2642 148.713 18.4283 149.23 18.7564C149.75 19.0845 150.155 19.5452 150.443 20.1385C150.735 20.7318 150.881 21.4261 150.881 22.2216C150.881 23.0104 150.735 23.6998 150.443 24.2898C150.155 24.8797 149.75 25.3388 149.23 25.6669C148.713 25.995 148.11 26.1591 147.42 26.1591ZM147.42 25.1051C147.944 25.1051 148.375 24.9709 148.713 24.7024C149.051 24.4339 149.301 24.081 149.464 23.6435C149.626 23.206 149.707 22.732 149.707 22.2216C149.707 21.7112 149.626 21.2356 149.464 20.7947C149.301 20.3539 149.051 19.9976 148.713 19.7259C148.375 19.4541 147.944 19.3182 147.42 19.3182C146.897 19.3182 146.466 19.4541 146.128 19.7259C145.79 19.9976 145.539 20.3539 145.377 20.7947C145.215 21.2356 145.133 21.7112 145.133 22.2216C145.133 22.732 145.215 23.206 145.377 23.6435C145.539 24.081 145.79 24.4339 146.128 24.7024C146.466 24.9709 146.897 25.1051 147.42 25.1051ZM152.672 26V18.3636H153.805V19.517H153.885C154.024 19.1392 154.276 18.8326 154.64 18.5973C155.005 18.362 155.416 18.2443 155.873 18.2443C155.959 18.2443 156.067 18.246 156.196 18.2493C156.326 18.2526 156.423 18.2576 156.49 18.2642V19.4574C156.45 19.4474 156.359 19.4325 156.216 19.4126C156.077 19.3894 155.93 19.3778 155.774 19.3778C155.403 19.3778 155.071 19.4557 154.779 19.6115C154.491 19.764 154.262 19.9761 154.093 20.2479C153.928 20.5163 153.845 20.8229 153.845 21.1676V26H152.672ZM157.881 26V18.3636H159.014V19.517H159.094C159.233 19.1392 159.485 18.8326 159.849 18.5973C160.214 18.362 160.625 18.2443 161.082 18.2443C161.168 18.2443 161.276 18.246 161.405 18.2493C161.535 18.2526 161.632 18.2576 161.699 18.2642V19.4574C161.659 19.4474 161.568 19.4325 161.425 19.4126C161.286 19.3894 161.139 19.3778 160.983 19.3778C160.612 19.3778 160.28 19.4557 159.988 19.6115C159.7 19.764 159.471 19.9761 159.302 20.2479C159.137 20.5163 159.054 20.8229 159.054 21.1676V26H157.881ZM164.078 28.8636C163.879 28.8636 163.701 28.8471 163.546 28.8139C163.39 28.7841 163.282 28.7543 163.222 28.7244L163.521 27.6903C163.806 27.7633 164.058 27.7898 164.276 27.7699C164.495 27.75 164.689 27.6522 164.858 27.4766C165.03 27.3042 165.188 27.0241 165.33 26.6364L165.549 26.0398L162.725 18.3636H163.998L166.106 24.4489H166.186L168.294 18.3636H169.566L166.325 27.1136C166.179 27.508 165.998 27.8345 165.783 28.093C165.567 28.3549 165.317 28.5488 165.032 28.6747C164.75 28.8007 164.432 28.8636 164.078 28.8636ZM171.491 26.0795C171.246 26.0795 171.036 25.9917 170.86 25.8161C170.684 25.6404 170.597 25.4299 170.597 25.1847C170.597 24.9394 170.684 24.7289 170.86 24.5533C171.036 24.3776 171.246 24.2898 171.491 24.2898C171.737 24.2898 171.947 24.3776 172.123 24.5533C172.299 24.7289 172.386 24.9394 172.386 25.1847C172.386 25.3471 172.345 25.4962 172.262 25.6321C172.183 25.768 172.075 25.8774 171.939 25.9602C171.806 26.0398 171.657 26.0795 171.491 26.0795ZM175.347 26.0795C175.102 26.0795 174.891 25.9917 174.716 25.8161C174.54 25.6404 174.452 25.4299 174.452 25.1847C174.452 24.9394 174.54 24.7289 174.716 24.5533C174.891 24.3776 175.102 24.2898 175.347 24.2898C175.592 24.2898 175.803 24.3776 175.978 24.5533C176.154 24.7289 176.242 24.9394 176.242 25.1847C176.242 25.3471 176.2 25.4962 176.118 25.6321C176.038 25.768 175.93 25.8774 175.794 25.9602C175.662 26.0398 175.513 26.0795 175.347 26.0795ZM179.202 26.0795C178.957 26.0795 178.747 25.9917 178.571 25.8161C178.395 25.6404 178.308 25.4299 178.308 25.1847C178.308 24.9394 178.395 24.7289 178.571 24.5533C178.747 24.3776 178.957 24.2898 179.202 24.2898C179.448 24.2898 179.658 24.3776 179.834 24.5533C180.009 24.7289 180.097 24.9394 180.097 25.1847C180.097 25.3471 180.056 25.4962 179.973 25.6321C179.893 25.768 179.786 25.8774 179.65 25.9602C179.517 26.0398 179.368 26.0795 179.202 26.0795Z" fill="#282828"/>
</svg>
