<?xml version="1.0" encoding="UTF-8"?>
<svg id="Layer_2" data-name="Layer 2" xmlns="http://www.w3.org/2000/svg" viewBox="0 0 1105.97 361.41">
  <defs>
    <style>
      .cls-1 {
        fill: #f2f2f3;
      }
    </style>
  </defs>
  <g id="Layer_1-2" data-name="Layer 1">
    <g>
      <g>
        <g>
          <path class="cls-1" d="M331.32,148.23V2.35h56c10.05,0,18.96,1.76,26.73,5.29,7.77,3.52,13.87,8.75,18.31,15.67,4.44,6.92,6.66,15.47,6.66,25.65s-2.25,18.34-6.76,25.26c-4.5,6.92-10.64,12.17-18.41,15.76-7.77,3.59-16.61,5.39-26.53,5.39h-25.65v52.87h-30.35ZM361.68,68.93h25.85c6.39,0,11.52-1.83,15.37-5.48,3.85-3.65,5.78-8.48,5.78-14.49s-1.93-11.03-5.78-14.69c-3.85-3.65-8.98-5.48-15.37-5.48h-25.85v40.14Z"/>
          <path class="cls-1" d="M511.87,187.4l16.25-41.12-41.32-104.96h31.53l25.26,68.73,25.26-68.73h31.53l-57.18,146.08h-31.33Z"/>
          <path class="cls-1" d="M723.93,150.58c-10.45,0-20.14-1.89-29.08-5.68-8.94-3.78-16.74-9.07-23.4-15.86-6.66-6.79-11.85-14.75-15.57-23.89-3.72-9.14-5.58-19.12-5.58-29.96s1.83-20.85,5.48-30.06c3.65-9.2,8.81-17.16,15.47-23.89,6.66-6.72,14.46-11.94,23.4-15.67C703.6,1.86,713.36,0,723.93,0s20.07,1.76,28.49,5.29,15.57,8.22,21.44,14.1c5.88,5.87,10.05,12.4,12.53,19.58l-26.83,12.92c-2.48-7.05-6.82-12.89-13.02-17.53-6.2-4.63-13.74-6.95-22.62-6.95s-16.19,2.03-22.71,6.07c-6.53,4.05-11.59,9.63-15.18,16.74-3.59,7.12-5.38,15.44-5.38,24.97s1.79,17.89,5.38,25.06c3.59,7.18,8.65,12.8,15.18,16.84,6.53,4.05,14.1,6.07,22.71,6.07s16.42-2.32,22.62-6.95c6.2-4.63,10.54-10.48,13.02-17.53l26.83,12.92c-2.48,7.18-6.66,13.71-12.53,19.58-5.87,5.87-13.02,10.57-21.44,14.1-8.42,3.52-17.92,5.29-28.49,5.29Z"/>
          <path class="cls-1" d="M893.9,150.58c-10.57,0-20.2-2.41-28.88-7.25-8.68-4.83-15.6-11.46-20.76-19.88-5.16-8.42-7.74-17.98-7.74-28.69s2.58-20.43,7.74-28.79c5.15-8.35,12.07-14.95,20.76-19.78,8.68-4.83,18.31-7.25,28.88-7.25s20.17,2.42,28.79,7.25c8.62,4.83,15.5,11.42,20.66,19.78,5.16,8.36,7.74,17.95,7.74,28.79s-2.58,20.27-7.74,28.69c-5.16,8.42-12.04,15.05-20.66,19.88-8.62,4.83-18.21,7.25-28.79,7.25ZM893.9,124.15c7.96,0,14.42-2.74,19.39-8.22,4.96-5.48,7.44-12.53,7.44-21.15s-2.48-15.5-7.44-21.05c-4.96-5.55-11.42-8.32-19.39-8.32s-14.46,2.78-19.48,8.32c-5.03,5.55-7.54,12.57-7.54,21.05s2.51,15.67,7.54,21.15c5.02,5.48,11.52,8.22,19.48,8.22Z"/>
          <path class="cls-1" d="M1008.06,148.23V41.32h50.72c14.62,0,26.14,3.75,34.56,11.26,8.42,7.51,12.63,17.72,12.63,30.65v65.01h-29.37v-63.44c0-5.48-1.63-9.85-4.89-13.12-3.27-3.26-7.57-4.9-12.92-4.9h-21.34v81.46h-29.37Z"/>
        </g>
        <g>
          <g>
            <path class="cls-1" d="M331.32,359.06v-26.44h23.5v-93.01h-23.5v-26.44h77.35v26.44h-23.5v93.01h23.5v26.44h-77.35Z"/>
            <path class="cls-1" d="M437.65,359.06v-145.88h47.58c15.79,0,29.5,3.13,41.12,9.4,11.62,6.27,20.62,14.88,27.02,25.85,6.39,10.97,9.59,23.5,9.59,37.6s-3.2,26.67-9.59,37.69c-6.4,11.03-15.41,19.68-27.02,25.95-11.62,6.27-25.33,9.4-41.12,9.4h-47.58ZM468,332.63h18.02c9.53,0,17.75-1.92,24.67-5.78,6.92-3.85,12.3-9.27,16.16-16.25,3.85-6.98,5.78-15.18,5.78-24.58s-1.93-17.75-5.78-24.67c-3.85-6.92-9.24-12.27-16.16-16.06-6.92-3.78-15.15-5.68-24.67-5.68h-18.02v93.01Z"/>
          </g>
          <g>
            <path class="cls-1" d="M620.94,359.06v-23.5l39.16-40.34c7.7-7.96,13.54-14.26,17.53-18.9,3.98-4.63,6.72-8.52,8.22-11.65,1.5-3.13,2.25-6.2,2.25-9.2,0-5.35-1.73-9.56-5.19-12.63-3.46-3.07-7.8-4.6-13.02-4.6s-10.12,1.54-14.29,4.6c-4.18,3.07-7.25,7.73-9.2,14l-26.44-8.62c1.57-7.57,4.83-14.16,9.79-19.78,4.96-5.61,10.97-9.95,18.01-13.02,7.05-3.07,14.42-4.6,22.13-4.6,9.66,0,18.14,1.7,25.46,5.09,7.31,3.4,12.99,8.16,17.04,14.29,4.04,6.14,6.07,13.32,6.07,21.54s-2.06,15.63-6.17,23.01c-4.11,7.38-10.54,15.5-19.29,24.38l-33.48,34.46h60.31v25.46h-98.89Z"/>
            <path class="cls-1" d="M801.87,361.41c-11.62,0-21.83-3.13-30.64-9.4-8.81-6.27-15.7-15.08-20.66-26.44-4.96-11.36-7.44-24.54-7.44-39.56s2.45-28.33,7.34-39.56c4.9-11.23,11.75-19.97,20.56-26.24s19.02-9.4,30.65-9.4,22.22,3.13,31.04,9.4c8.81,6.27,15.67,15.05,20.56,26.34,4.9,11.29,7.34,24.45,7.34,39.46s-2.45,28.17-7.34,39.46c-4.89,11.29-11.75,20.1-20.56,26.44-8.81,6.33-19.09,9.5-30.84,9.5ZM801.87,334c9.14,0,16.16-4.24,21.05-12.73,4.9-8.48,7.34-20.23,7.34-35.25s-2.45-26.73-7.34-35.15c-4.9-8.42-11.98-12.63-21.25-12.63s-15.96,4.18-20.85,12.53c-4.9,8.36-7.34,20.1-7.34,35.25s2.48,26.76,7.44,35.25c4.96,8.49,11.94,12.73,20.95,12.73Z"/>
            <path class="cls-1" d="M882.54,359.06v-23.5l39.16-40.34c7.7-7.96,13.54-14.26,17.53-18.9,3.98-4.63,6.72-8.52,8.22-11.65,1.5-3.13,2.25-6.2,2.25-9.2,0-5.35-1.73-9.56-5.19-12.63-3.46-3.07-7.8-4.6-13.02-4.6s-10.12,1.54-14.29,4.6c-4.18,3.07-7.25,7.73-9.2,14l-26.44-8.62c1.57-7.57,4.83-14.16,9.79-19.78,4.96-5.61,10.97-9.95,18.02-13.02,7.05-3.07,14.42-4.6,22.13-4.6,9.66,0,18.14,1.7,25.46,5.09,7.31,3.4,12.99,8.16,17.04,14.29,4.04,6.14,6.07,13.32,6.07,21.54s-2.06,15.63-6.17,23.01c-4.11,7.38-10.54,15.5-19.29,24.38l-33.49,34.46h60.31v25.46h-98.89Z"/>
            <path class="cls-1" d="M1054.08,361.41c-10.05,0-18.99-2.12-26.83-6.36-7.83-4.24-13.97-10.02-18.41-17.33-4.44-7.31-6.66-15.53-6.66-24.67,0-4.57.46-9.14,1.37-13.71.91-4.57,2.74-9.6,5.48-15.08s6.85-11.75,12.34-18.8l40.53-52.28h36.23l-40.93,52.28h2.35c9.01,0,17,2.03,23.99,6.07,6.98,4.05,12.46,9.56,16.45,16.55,3.98,6.99,5.97,14.85,5.97,23.6,0,9.53-2.22,18.05-6.66,25.55-4.44,7.51-10.54,13.41-18.31,17.72-7.77,4.31-16.74,6.46-26.93,6.46ZM1054.08,334c6,0,11.09-2.02,15.27-6.07,4.18-4.04,6.27-9.33,6.27-15.86s-2.09-11.78-6.27-15.76c-4.18-3.98-9.27-5.97-15.27-5.97s-11.1,1.99-15.27,5.97c-4.18,3.98-6.27,9.24-6.27,15.76s2.09,11.82,6.27,15.86c4.18,4.05,9.27,6.07,15.27,6.07Z"/>
          </g>
        </g>
      </g>
      <g>
        <path class="cls-1" d="M242.49,185.44c10.51-7.1,19.25-15.99,26.22-26.7,9.95-15.28,14.92-33.88,14.92-55.8s-4.91-41.38-14.7-56.66c-9.81-15.28-23.29-26.82-40.44-34.6C211.32,3.89,191.64,0,169.44,0H45.73v257.73c-.47,8.02-3.32,14.57-8.59,19.62-5.8,5.55-13.43,8.32-22.92,8.32H0v73.39h39c16.44,0,30.71-3.26,42.83-9.79,12.11-6.53,21.44-15.66,27.97-27.41,5.36-9.64,8.65-18.1,9.8-41.11.38-7.59,0-30.4,0-30.4v-44.89h49.84c16.94,0,32.46-2.38,46.56-7.12l32.85,27.14-1.15-19.77,21.57.73-26.78-21ZM138.55,58.25l-4-.06c.34-21.73,18.13-39.16,39.78-39.16.21,0,.43,0,.64,0l-.06,4c-19.75-.29-36.04,15.49-36.36,35.22ZM199.02,118.4c-21.88,0-39.62-17.74-39.62-39.62s17.74-39.62,39.62-39.62,39.61,17.74,39.61,39.62-17.74,39.62-39.61,39.62Z"/>
        <path class="cls-1" d="M199.02,64.61c0,9.25,7.5,16.74,16.74,16.74s16.74-7.5,16.74-16.74-7.5-16.74-16.74-16.74-16.74,7.5-16.74,16.74Z"/>
      </g>
    </g>
  </g>
</svg>