<?xml version="1.0" encoding="UTF-8"?>
<svg id="Layer_2" data-name="Layer 2" xmlns="http://www.w3.org/2000/svg" viewBox="0 0 605.27 808.21">
  <defs>
    <style>
      .cls-1 {
        fill: #282828;
      }
    </style>
  </defs>
  <g id="Layer_1-2" data-name="Layer 1">
    <g>
      <g>
        <circle class="cls-1" cx="410.93" cy="94.62" r="24.52" transform="translate(166.26 438.06) rotate(-67.5)"/>
        <path class="cls-1" d="M450.07,271.57c15.38-10.39,28.19-23.42,38.4-39.1,14.57-22.38,21.85-49.62,21.85-81.71s-7.18-60.59-21.53-82.98c-14.36-22.38-34.11-39.27-59.23-50.68C404.42,5.7,375.6,0,343.09,0h-181.16v377.43c-.69,11.75-4.86,21.34-12.59,28.73-8.49,8.12-19.67,12.19-33.56,12.19h-20.83v107.47h57.12c24.07,0,44.97-4.78,62.72-14.34,17.74-9.56,31.39-22.93,40.96-40.14,7.85-14.12,12.67-26.51,14.35-60.21.55-11.12,0-44.52,0-44.52v-65.74h72.99c24.81,0,47.54-3.48,68.19-10.43l48.1,39.75-1.68-28.95,31.59,1.07-39.22-30.75ZM297.18,85.3l-4.51-.07c.24-15.38,6.46-29.75,17.51-40.46,11.05-10.71,25.62-16.43,40.99-16.22l-.07,4.51c-.29,0-.58,0-.86,0-13.86,0-26.94,5.29-36.92,14.96-10.19,9.87-15.92,23.11-16.14,37.29ZM386.41,173.39c-32.04,0-58.01-25.97-58.01-58.01s25.97-58.01,58.01-58.01,58.01,25.97,58.01,58.01-25.97,58.01-58.01,58.01Z"/>
      </g>
      <g>
        <g>
          <path class="cls-1" d="M0,641.64v-113.99h43.76c7.85,0,14.82,1.38,20.89,4.13,6.07,2.75,10.84,6.83,14.31,12.24,3.47,5.41,5.2,12.09,5.2,20.04s-1.76,14.33-5.28,19.74c-3.52,5.41-8.31,9.51-14.38,12.32-6.07,2.81-12.98,4.21-20.73,4.21h-20.04v41.31H0ZM23.72,579.68h20.2c5,0,9-1.43,12.01-4.28,3.01-2.85,4.51-6.63,4.51-11.32s-1.51-8.62-4.51-11.48c-3.01-2.85-7.01-4.28-12.01-4.28h-20.2v31.37Z"/>
          <path class="cls-1" d="M141.07,672.24l12.7-32.13-32.28-82.01h24.63l19.74,53.7,19.74-53.7h24.63l-44.68,114.14h-24.48Z"/>
          <path class="cls-1" d="M306.76,643.48c-8.16,0-15.73-1.48-22.72-4.44-6.99-2.96-13.08-7.09-18.28-12.39-5.2-5.3-9.26-11.53-12.16-18.67-2.91-7.14-4.36-14.94-4.36-23.41s1.43-16.29,4.28-23.49c2.86-7.19,6.89-13.41,12.09-18.67,5.2-5.25,11.3-9.33,18.28-12.24,6.98-2.91,14.61-4.36,22.87-4.36s15.68,1.38,22.26,4.13c6.58,2.75,12.16,6.43,16.75,11.02,4.59,4.59,7.85,9.69,9.79,15.3l-20.96,10.1c-1.94-5.51-5.33-10.07-10.18-13.69-4.85-3.62-10.74-5.43-17.67-5.43s-12.65,1.58-17.75,4.74c-5.1,3.16-9.05,7.52-11.86,13.08-2.81,5.56-4.21,12.06-4.21,19.51s1.4,13.98,4.21,19.58c2.8,5.61,6.76,10,11.86,13.16,5.1,3.16,11.02,4.74,17.75,4.74s12.83-1.81,17.67-5.43c4.84-3.62,8.24-8.19,10.18-13.69l20.96,10.1c-1.94,5.61-5.2,10.71-9.79,15.3-4.59,4.59-10.17,8.26-16.75,11.02-6.58,2.75-14,4.13-22.26,4.13Z"/>
          <path class="cls-1" d="M439.57,643.48c-8.26,0-15.78-1.89-22.57-5.66-6.78-3.77-12.19-8.95-16.22-15.53-4.03-6.58-6.04-14.05-6.04-22.41s2.01-15.96,6.04-22.49c4.03-6.53,9.43-11.68,16.22-15.45,6.78-3.77,14.31-5.66,22.57-5.66s15.76,1.89,22.49,5.66c6.73,3.77,12.11,8.93,16.14,15.45,4.03,6.53,6.04,14.03,6.04,22.49s-2.02,15.84-6.04,22.41c-4.03,6.58-9.41,11.76-16.14,15.53-6.73,3.77-14.23,5.66-22.49,5.66ZM439.57,622.82c6.22,0,11.27-2.14,15.15-6.43,3.87-4.28,5.81-9.79,5.81-16.52s-1.94-12.11-5.81-16.45c-3.88-4.33-8.93-6.5-15.15-6.5s-11.3,2.17-15.22,6.5c-3.93,4.34-5.89,9.82-5.89,16.45s1.96,12.24,5.89,16.52c3.93,4.28,9,6.43,15.22,6.43Z"/>
          <path class="cls-1" d="M528.77,641.64v-83.54h39.63c11.42,0,20.42,2.93,27,8.8,6.58,5.87,9.87,13.85,9.87,23.94v50.8h-22.95v-49.57c0-4.28-1.28-7.7-3.82-10.25-2.55-2.55-5.92-3.83-10.1-3.83h-16.68v63.65h-22.95Z"/>
        </g>
        <g>
          <g>
            <path class="cls-1" d="M0,806.37v-20.66h18.36v-72.68H0v-20.66h60.44v20.66h-18.36v72.68h18.36v20.66H0Z"/>
            <path class="cls-1" d="M83.08,806.37v-113.99h37.18c12.34,0,23.05,2.45,32.13,7.34,9.08,4.9,16.12,11.63,21.11,20.2,5,8.57,7.5,18.36,7.5,29.38s-2.5,20.83-7.5,29.45c-5,8.62-12.04,15.38-21.11,20.27-9.08,4.9-19.79,7.34-32.13,7.34h-37.18ZM106.79,785.72h14.08c7.44,0,13.87-1.5,19.28-4.51,5.41-3.01,9.61-7.24,12.62-12.7,3.01-5.46,4.51-11.86,4.51-19.2s-1.51-13.87-4.51-19.28c-3.01-5.41-7.22-9.59-12.62-12.55-5.41-2.96-11.83-4.44-19.28-4.44h-14.08v72.68Z"/>
          </g>
          <g>
            <path class="cls-1" d="M226.29,806.37v-18.36l30.6-31.52c6.02-6.22,10.58-11.14,13.69-14.76,3.11-3.62,5.25-6.66,6.43-9.1,1.17-2.45,1.76-4.84,1.76-7.19,0-4.18-1.35-7.47-4.05-9.87-2.7-2.4-6.1-3.6-10.18-3.6s-7.91,1.2-11.17,3.6c-3.27,2.4-5.66,6.04-7.19,10.94l-20.66-6.73c1.22-5.91,3.77-11.07,7.65-15.45,3.88-4.38,8.57-7.78,14.08-10.17,5.51-2.4,11.27-3.6,17.29-3.6,7.55,0,14.18,1.33,19.89,3.98,5.71,2.65,10.15,6.38,13.31,11.17,3.16,4.8,4.74,10.4,4.74,16.83s-1.61,12.22-4.82,17.98c-3.21,5.76-8.24,12.11-15.07,19.05l-26.16,26.93h47.12v19.89h-77.27Z"/>
            <path class="cls-1" d="M367.66,808.21c-9.08,0-17.06-2.45-23.94-7.34-6.89-4.9-12.27-11.78-16.14-20.66-3.88-8.87-5.81-19.18-5.81-30.91s1.91-22.13,5.74-30.91c3.83-8.77,9.18-15.61,16.07-20.5s14.86-7.34,23.94-7.34,17.37,2.45,24.25,7.34c6.88,4.9,12.24,11.76,16.06,20.58,3.83,8.82,5.74,19.1,5.74,30.83s-1.91,22.01-5.74,30.83c-3.82,8.82-9.18,15.71-16.06,20.65-6.89,4.95-14.92,7.42-24.1,7.42ZM367.66,786.79c7.14,0,12.62-3.31,16.45-9.95,3.83-6.63,5.74-15.81,5.74-27.54s-1.91-20.88-5.74-27.46c-3.83-6.58-9.36-9.87-16.6-9.87s-12.47,3.27-16.29,9.79c-3.83,6.53-5.74,15.71-5.74,27.54s1.94,20.91,5.81,27.54c3.88,6.63,9.33,9.95,16.37,9.95Z"/>
            <path class="cls-1" d="M430.69,806.37v-18.36l30.6-31.52c6.02-6.22,10.58-11.14,13.69-14.76,3.11-3.62,5.25-6.66,6.43-9.1,1.17-2.45,1.76-4.84,1.76-7.19,0-4.18-1.35-7.47-4.05-9.87-2.7-2.4-6.1-3.6-10.17-3.6s-7.91,1.2-11.17,3.6c-3.27,2.4-5.66,6.04-7.19,10.94l-20.66-6.73c1.22-5.91,3.77-11.07,7.65-15.45,3.87-4.38,8.57-7.78,14.08-10.17,5.51-2.4,11.27-3.6,17.29-3.6,7.55,0,14.18,1.33,19.89,3.98,5.71,2.65,10.15,6.38,13.31,11.17,3.16,4.8,4.74,10.4,4.74,16.83s-1.61,12.22-4.82,17.98c-3.21,5.76-8.24,12.11-15.07,19.05l-26.16,26.93h47.12v19.89h-77.27Z"/>
            <path class="cls-1" d="M564.72,808.21c-7.86,0-14.84-1.66-20.96-4.97-6.12-3.31-10.92-7.83-14.38-13.54-3.47-5.71-5.2-12.14-5.2-19.28,0-3.57.36-7.14,1.07-10.71.71-3.57,2.14-7.5,4.28-11.78s5.36-9.18,9.64-14.69l31.67-40.85h28.3l-31.98,40.85h1.84c7.04,0,13.29,1.58,18.74,4.74,5.46,3.16,9.74,7.47,12.85,12.93,3.11,5.46,4.67,11.6,4.67,18.44,0,7.45-1.74,14.1-5.2,19.97-3.47,5.87-8.24,10.48-14.31,13.85-6.07,3.37-13.08,5.05-21.04,5.05ZM564.72,786.79c4.69,0,8.67-1.58,11.93-4.74,3.26-3.16,4.9-7.29,4.9-12.39s-1.63-9.2-4.9-12.32c-3.27-3.11-7.24-4.67-11.93-4.67s-8.67,1.56-11.93,4.67c-3.27,3.11-4.9,7.22-4.9,12.32s1.63,9.23,4.9,12.39c3.26,3.16,7.24,4.74,11.93,4.74Z"/>
          </g>
        </g>
      </g>
    </g>
  </g>
</svg>