<?xml version="1.0" encoding="UTF-8"?>
<svg id="Layer_2" data-name="Layer 2" xmlns="http://www.w3.org/2000/svg" viewBox="0 0 1198.83 466.63">
  <defs>
    <style>
      .cls-1 {
        fill: #282828;
      }
    </style>
  </defs>
  <g id="Layer_1-2" data-name="Layer 1">
    <g>
      <g>
        <circle class="cls-1" cx="280.41" cy="83.97" r="21.76" transform="translate(95.52 310.9) rotate(-67.5)"/>
        <path class="cls-1" d="M315.14,241c13.65-9.22,25.02-20.78,34.08-34.7,12.93-19.86,19.39-44.03,19.39-72.51s-6.38-53.77-19.11-73.64c-12.75-19.86-30.27-34.85-52.56-44.97C274.63,5.06,249.06,0,220.2,0H59.43v334.94c-.62,10.43-4.32,18.94-11.17,25.5-7.53,7.21-17.46,10.81-29.78,10.81H0v95.38h50.69c21.36,0,39.91-4.24,55.66-12.72,15.74-8.48,27.86-20.35,36.35-35.62,6.97-12.53,11.25-23.53,12.73-53.43.49-9.87,0-39.51,0-39.51v-58.34h64.77c22.02,0,42.18-3.09,60.51-9.25l42.69,35.27-1.49-25.69,28.03.95-34.81-27.29ZM179.46,75.69l-4-.06c.22-13.65,5.74-26.4,15.54-35.9,9.81-9.5,22.73-14.58,36.38-14.4l-.06,4c-.26,0-.51,0-.77,0-12.3,0-23.91,4.7-32.76,13.28-9.04,8.76-14.13,20.51-14.33,33.09ZM258.65,153.88c-28.43,0-51.48-23.05-51.48-51.48s23.05-51.48,51.48-51.48,51.48,23.05,51.48,51.48-23.05,51.48-51.48,51.48Z"/>
      </g>
      <g>
        <g>
          <g>
            <path class="cls-1" d="M424.18,148.23V2.35h56c10.05,0,18.96,1.76,26.73,5.29,7.77,3.52,13.87,8.75,18.31,15.67,4.44,6.92,6.66,15.47,6.66,25.65s-2.25,18.34-6.76,25.26c-4.5,6.92-10.64,12.17-18.41,15.76-7.77,3.59-16.61,5.39-26.53,5.39h-25.65v52.87h-30.35ZM454.53,68.93h25.85c6.39,0,11.52-1.83,15.37-5.48,3.85-3.65,5.78-8.48,5.78-14.49s-1.93-11.03-5.78-14.69c-3.85-3.65-8.98-5.48-15.37-5.48h-25.85v40.14Z"/>
            <path class="cls-1" d="M604.72,187.4l16.25-41.12-41.32-104.96h31.53l25.26,68.73,25.26-68.73h31.53l-57.18,146.08h-31.33Z"/>
            <path class="cls-1" d="M816.79,150.58c-10.45,0-20.14-1.89-29.08-5.68-8.94-3.78-16.74-9.07-23.4-15.86-6.66-6.79-11.85-14.75-15.57-23.89-3.72-9.14-5.58-19.12-5.58-29.96s1.83-20.85,5.48-30.06c3.65-9.2,8.81-17.16,15.47-23.89,6.66-6.72,14.46-11.94,23.4-15.67C796.45,1.86,806.21,0,816.79,0s20.07,1.76,28.49,5.29,15.57,8.22,21.44,14.1c5.88,5.87,10.05,12.4,12.53,19.58l-26.83,12.92c-2.48-7.05-6.82-12.89-13.02-17.53-6.2-4.63-13.74-6.95-22.62-6.95s-16.19,2.03-22.71,6.07c-6.53,4.05-11.59,9.63-15.18,16.74-3.59,7.12-5.38,15.44-5.38,24.97s1.79,17.89,5.38,25.06c3.59,7.18,8.65,12.8,15.18,16.84,6.53,4.05,14.1,6.07,22.71,6.07s16.42-2.32,22.62-6.95c6.2-4.63,10.54-10.48,13.02-17.53l26.83,12.92c-2.48,7.18-6.66,13.71-12.53,19.58-5.87,5.87-13.02,10.57-21.44,14.1-8.42,3.52-17.92,5.29-28.49,5.29Z"/>
            <path class="cls-1" d="M986.76,150.58c-10.57,0-20.2-2.41-28.88-7.25-8.68-4.83-15.6-11.46-20.76-19.88-5.16-8.42-7.74-17.98-7.74-28.69s2.58-20.43,7.74-28.79c5.15-8.35,12.07-14.95,20.76-19.78,8.68-4.83,18.31-7.25,28.88-7.25s20.17,2.42,28.79,7.25c8.62,4.83,15.5,11.42,20.66,19.78,5.16,8.36,7.74,17.95,7.74,28.79s-2.58,20.27-7.74,28.69c-5.16,8.42-12.04,15.05-20.66,19.88-8.62,4.83-18.21,7.25-28.79,7.25ZM986.76,124.15c7.96,0,14.42-2.74,19.39-8.22,4.96-5.48,7.44-12.53,7.44-21.15s-2.48-15.5-7.44-21.05c-4.96-5.55-11.42-8.32-19.39-8.32s-14.46,2.78-19.48,8.32c-5.03,5.55-7.54,12.57-7.54,21.05s2.51,15.67,7.54,21.15c5.02,5.48,11.52,8.22,19.48,8.22Z"/>
            <path class="cls-1" d="M1100.92,148.23V41.32h50.72c14.62,0,26.14,3.75,34.56,11.26,8.42,7.51,12.63,17.72,12.63,30.65v65.01h-29.37v-63.44c0-5.48-1.63-9.85-4.89-13.12-3.27-3.26-7.57-4.9-12.92-4.9h-21.34v81.46h-29.37Z"/>
          </g>
          <g>
            <g>
              <path class="cls-1" d="M424.18,359.06v-26.44h23.5v-93.01h-23.5v-26.44h77.35v26.44h-23.5v93.01h23.5v26.44h-77.35Z"/>
              <path class="cls-1" d="M530.5,359.06v-145.88h47.58c15.79,0,29.5,3.13,41.12,9.4,11.62,6.27,20.62,14.88,27.02,25.85,6.39,10.97,9.59,23.5,9.59,37.6s-3.2,26.67-9.59,37.69c-6.4,11.03-15.41,19.68-27.02,25.95-11.62,6.27-25.33,9.4-41.12,9.4h-47.58ZM560.86,332.63h18.02c9.53,0,17.75-1.92,24.67-5.78,6.92-3.85,12.3-9.27,16.16-16.25,3.85-6.98,5.78-15.18,5.78-24.58s-1.93-17.75-5.78-24.67c-3.85-6.92-9.24-12.27-16.16-16.06-6.92-3.78-15.15-5.68-24.67-5.68h-18.02v93.01Z"/>
            </g>
            <g>
              <path class="cls-1" d="M713.79,359.06v-23.5l39.16-40.34c7.7-7.96,13.54-14.26,17.53-18.9,3.98-4.63,6.72-8.52,8.22-11.65,1.5-3.13,2.25-6.2,2.25-9.2,0-5.35-1.73-9.56-5.19-12.63-3.46-3.07-7.8-4.6-13.02-4.6s-10.12,1.54-14.29,4.6c-4.18,3.07-7.25,7.73-9.2,14l-26.44-8.62c1.57-7.57,4.83-14.16,9.79-19.78,4.96-5.61,10.97-9.95,18.01-13.02,7.05-3.07,14.42-4.6,22.13-4.6,9.66,0,18.14,1.7,25.46,5.09,7.31,3.4,12.99,8.16,17.04,14.29,4.04,6.14,6.07,13.32,6.07,21.54s-2.06,15.63-6.17,23.01c-4.11,7.38-10.54,15.5-19.29,24.38l-33.48,34.46h60.31v25.46h-98.89Z"/>
              <path class="cls-1" d="M894.72,361.41c-11.62,0-21.83-3.13-30.64-9.4-8.81-6.27-15.7-15.08-20.66-26.44-4.96-11.36-7.44-24.54-7.44-39.56s2.45-28.33,7.34-39.56c4.9-11.23,11.75-19.97,20.56-26.24s19.02-9.4,30.65-9.4,22.22,3.13,31.04,9.4c8.81,6.27,15.67,15.05,20.56,26.34,4.9,11.29,7.34,24.45,7.34,39.46s-2.45,28.17-7.34,39.46c-4.89,11.29-11.75,20.1-20.56,26.44-8.81,6.33-19.09,9.5-30.84,9.5ZM894.72,334c9.14,0,16.16-4.24,21.05-12.73,4.9-8.48,7.34-20.23,7.34-35.25s-2.45-26.73-7.34-35.15c-4.9-8.42-11.98-12.63-21.25-12.63s-15.96,4.18-20.85,12.53c-4.9,8.36-7.34,20.1-7.34,35.25s2.48,26.76,7.44,35.25c4.96,8.49,11.94,12.73,20.95,12.73Z"/>
              <path class="cls-1" d="M975.4,359.06v-23.5l39.16-40.34c7.7-7.96,13.54-14.26,17.53-18.9,3.98-4.63,6.72-8.52,8.22-11.65,1.5-3.13,2.25-6.2,2.25-9.2,0-5.35-1.73-9.56-5.19-12.63-3.46-3.07-7.8-4.6-13.02-4.6s-10.12,1.54-14.29,4.6c-4.18,3.07-7.25,7.73-9.2,14l-26.44-8.62c1.57-7.57,4.83-14.16,9.79-19.78,4.96-5.61,10.97-9.95,18.02-13.02,7.05-3.07,14.42-4.6,22.13-4.6,9.66,0,18.14,1.7,25.46,5.09,7.31,3.4,12.99,8.16,17.04,14.29,4.04,6.14,6.07,13.32,6.07,21.54s-2.06,15.63-6.17,23.01c-4.11,7.38-10.54,15.5-19.29,24.38l-33.49,34.46h60.31v25.46h-98.89Z"/>
              <path class="cls-1" d="M1146.93,361.41c-10.05,0-18.99-2.12-26.83-6.36-7.83-4.24-13.97-10.02-18.41-17.33-4.44-7.31-6.66-15.53-6.66-24.67,0-4.57.46-9.14,1.37-13.71.91-4.57,2.74-9.6,5.48-15.08s6.85-11.75,12.34-18.8l40.53-52.28h36.23l-40.93,52.28h2.35c9.01,0,17,2.03,23.99,6.07,6.98,4.05,12.46,9.56,16.45,16.55,3.98,6.99,5.97,14.85,5.97,23.6,0,9.53-2.22,18.05-6.66,25.55-4.44,7.51-10.54,13.41-18.31,17.72-7.77,4.31-16.74,6.46-26.93,6.46ZM1146.93,334c6,0,11.09-2.02,15.27-6.07,4.18-4.04,6.27-9.33,6.27-15.86s-2.09-11.78-6.27-15.76c-4.18-3.98-9.27-5.97-15.27-5.97s-11.1,1.99-15.27,5.97c-4.18,3.98-6.27,9.24-6.27,15.76s2.09,11.82,6.27,15.86c4.18,4.05,9.27,6.07,15.27,6.07Z"/>
            </g>
          </g>
        </g>
        <g>
          <g>
            <path class="cls-1" d="M424.18,445.37v-11.19h3.6c2.4,0,4.33-.68,5.8-2.04,1.47-1.36,2.2-3.16,2.2-5.4v-40.94h12.39v40.38c0,3.84-.83,7.2-2.48,10.07s-4.01,5.12-7.08,6.72c-3.07,1.6-6.68,2.4-10.83,2.4h-3.6Z"/>
            <path class="cls-1" d="M471.11,446.33c-4.69,0-8.41-1.12-11.15-3.36-2.75-2.24-4.12-5.33-4.12-9.27,0-3.68,1.28-6.72,3.84-9.12,2.56-2.4,6.45-4.02,11.67-4.88l12.07-1.92v-5.68h-22.79v-10.4h34.78v43.66h-11.19v-4.08c-3.31,3.36-7.68,5.04-13.11,5.04ZM468.23,433.29c0,1.33.51,2.37,1.52,3.12,1.01.75,2.26,1.12,3.76,1.12,2.98,0,5.38-.93,7.2-2.8,1.81-1.87,2.72-4.13,2.72-6.8v-1.36l-9.92,1.76c-1.71.32-3.01.87-3.92,1.64-.91.77-1.36,1.88-1.36,3.32Z"/>
            <path class="cls-1" d="M504.22,445.37v-60.53h11.99v32.62l14.79-15.75h14.79l-15.83,17.59,15.75,26.07h-13.59l-11.12-18.63-4.8,5.28v13.35h-11.99Z"/>
            <path class="cls-1" d="M564.58,446.33c-4.69,0-8.41-1.12-11.15-3.36-2.75-2.24-4.12-5.33-4.12-9.27,0-3.68,1.28-6.72,3.84-9.12,2.56-2.4,6.45-4.02,11.67-4.88l12.07-1.92v-1.2c0-1.65-.65-3.04-1.96-4.16-1.31-1.12-3.08-1.68-5.32-1.68s-4.01.59-5.64,1.76c-1.63,1.17-2.81,2.72-3.56,4.64l-9.6-4.56c1.28-3.62,3.67-6.5,7.16-8.64,3.49-2.13,7.56-3.2,12.19-3.2,3.68,0,6.93.67,9.75,2,2.83,1.33,5.02,3.19,6.6,5.56,1.57,2.37,2.36,5.13,2.36,8.28v19.19h4.8v9.6h-15.99v-4.08c-3.31,3.36-7.68,5.04-13.11,5.04ZM561.71,433.29c0,1.33.51,2.37,1.52,3.12,1.01.75,2.26,1.12,3.76,1.12,2.98,0,5.38-.93,7.2-2.8,1.81-1.87,2.72-4.13,2.72-6.8v-1.36l-9.92,1.76c-1.71.32-3.01.87-3.92,1.64-.91.77-1.36,1.88-1.36,3.32Z"/>
            <path class="cls-1" d="M600.33,445.37v-43.66h11.19v6.56c1.12-2.72,2.71-4.57,4.76-5.56,2.05-.99,4.41-1.48,7.08-1.48h2.56v10.39h-3.76c-2.93,0-5.3.89-7.12,2.68-1.81,1.79-2.72,4.31-2.72,7.56v23.51h-11.99Z"/>
            <path class="cls-1" d="M653.82,445.85c-5.28,0-9.37-1.43-12.27-4.28-2.91-2.85-4.36-6.84-4.36-11.95v-17.51h-7.36v-10.4h.4c4.64,0,6.96-2.24,6.96-6.72v-3.2h11.99v9.91h10.23v10.4h-10.23v16.71c0,4.42,2.48,6.64,7.44,6.64.75,0,1.68-.08,2.8-.24v10.15c-.8.11-1.71.21-2.72.32-1.01.11-1.97.16-2.88.16Z"/>
            <path class="cls-1" d="M679.96,446.33c-4.69,0-8.41-1.12-11.15-3.36s-4.12-5.33-4.12-9.27c0-3.68,1.28-6.72,3.84-9.12,2.56-2.4,6.45-4.02,11.67-4.88l11.91-1.92c-.32-1.76-1.16-3.14-2.52-4.16-1.36-1.01-3.16-1.52-5.4-1.52h-14.71v-10.4h15.51c5.97,0,10.67,1.53,14.11,4.6,3.44,3.07,5.16,7.24,5.16,12.51v26.55h-11.2v-4.08c-3.3,3.36-7.68,5.04-13.11,5.04ZM677.08,433.29c0,1.33.51,2.37,1.52,3.12,1.01.75,2.27,1.12,3.76,1.12,2.99,0,5.38-.93,7.2-2.8,1.81-1.87,2.72-4.13,2.72-6.8v-1.36l-9.92,1.76c-1.71.32-3.01.87-3.92,1.64-.91.77-1.36,1.88-1.36,3.32Z"/>
            <path class="cls-1" d="M717.46,458.56v-6c1.87-.43,3.4-1.24,4.6-2.44,1.2-1.2,1.99-2.79,2.36-4.76h-5.36v-11.99h11.99v6.96c0,10.29-4.53,16.36-13.59,18.23Z"/>
          </g>
          <g>
            <path class="cls-1" d="M782.56,450c-4.48,0-8.33-.83-11.55-2.48-3.23-1.65-5.69-3.86-7.4-6.64-1.71-2.77-2.56-5.78-2.56-9.04,0-6.34,2.77-11.03,8.31-14.07-1.92-1.28-3.44-3.05-4.56-5.32-1.12-2.27-1.68-4.73-1.68-7.4,0-3.2.83-6.05,2.48-8.56,1.65-2.51,3.94-4.46,6.88-5.88,2.93-1.41,6.29-2.12,10.07-2.12s7.13.71,10.04,2.12c2.9,1.41,5.2,3.37,6.88,5.88,1.68,2.51,2.52,5.36,2.52,8.56,0,2.61-.55,5.06-1.64,7.36-1.09,2.29-2.63,4.08-4.6,5.36,2.77,1.55,4.88,3.49,6.32,5.84,1.44,2.35,2.16,5.12,2.16,8.32s-.87,6.25-2.6,9c-1.73,2.75-4.22,4.94-7.48,6.6-3.25,1.65-7.12,2.48-11.59,2.48ZM782.56,439.6c2.77,0,5.01-.75,6.72-2.24,1.71-1.49,2.56-3.46,2.56-5.92s-.85-4.41-2.56-5.88c-1.71-1.47-3.95-2.2-6.72-2.2s-4.92.73-6.6,2.2c-1.68,1.47-2.52,3.43-2.52,5.88s.84,4.43,2.52,5.92c1.68,1.49,3.88,2.24,6.6,2.24ZM782.56,412.98c2.13,0,3.84-.68,5.12-2.04,1.28-1.36,1.92-3.02,1.92-5s-.64-3.7-1.92-5.04c-1.28-1.33-2.99-2-5.12-2s-3.84.67-5.12,2c-1.28,1.33-1.92,3.01-1.92,5.04s.64,3.64,1.92,5c1.28,1.36,2.98,2.04,5.12,2.04Z"/>
            <path class="cls-1" d="M815.27,432.41v-10.39h35.98v10.39h-35.98Z"/>
            <path class="cls-1" d="M864.76,449.04l16.71-21.35h-.96c-3.68,0-6.94-.83-9.79-2.48-2.85-1.65-5.09-3.9-6.72-6.76-1.63-2.85-2.44-6.06-2.44-9.63,0-3.94.91-7.44,2.72-10.47s4.32-5.44,7.52-7.2,6.85-2.64,10.95-2.64,7.82.87,10.99,2.6c3.17,1.73,5.66,4.08,7.48,7.04,1.81,2.96,2.72,6.33,2.72,10.11,0,1.87-.19,3.73-.56,5.6-.37,1.87-1.12,3.91-2.24,6.12-1.12,2.21-2.8,4.79-5.04,7.72l-16.55,21.35h-14.79ZM882.75,417.53c2.45,0,4.53-.81,6.24-2.44,1.71-1.63,2.56-3.77,2.56-6.44s-.85-4.82-2.56-6.48c-1.71-1.65-3.79-2.48-6.24-2.48s-4.53.83-6.24,2.48c-1.71,1.65-2.56,3.81-2.56,6.48s.85,4.81,2.56,6.44c1.71,1.63,3.78,2.44,6.24,2.44Z"/>
            <path class="cls-1" d="M922.17,449.04l20.15-59.57h16.47l20.15,59.57h-13.51l-4-12.15h-21.83l-4,12.15h-13.43ZM943.04,426.09h14.95l-7.44-22.95-7.52,22.95Z"/>
            <path class="cls-1" d="M1002.53,450c-4,0-7.49-.77-10.47-2.32-2.99-1.55-5.32-3.7-7-6.48-1.68-2.77-2.52-6-2.52-9.67v-26.15h11.99v25.91c0,2.4.75,4.32,2.24,5.76,1.49,1.44,3.41,2.16,5.76,2.16s4.26-.72,5.76-2.16c1.49-1.44,2.24-3.36,2.24-5.76v-25.91h11.99v26.15c0,3.68-.84,6.9-2.52,9.67-1.68,2.77-4.01,4.93-7,6.48-2.99,1.55-6.48,2.32-10.47,2.32Z"/>
            <path class="cls-1" d="M1036.59,466.63v-10.39h15.99c3.09,0,5.49-.73,7.2-2.2,1.71-1.47,2.56-3.51,2.56-6.12v-5.36c-2.88,2.88-6.77,4.32-11.67,4.32-4.05,0-7.68-.92-10.88-2.76-3.2-1.84-5.7-4.37-7.52-7.6-1.81-3.22-2.72-6.89-2.72-10.99s.91-7.74,2.72-10.91c1.81-3.17,4.29-5.66,7.44-7.48,3.14-1.81,6.72-2.72,10.71-2.72,5.38,0,9.62,1.84,12.71,5.52v-4.56h11.2v42.54c0,5.86-1.92,10.45-5.76,13.75-3.84,3.3-9.17,4.96-15.99,4.96h-15.99ZM1052.34,436c2.99,0,5.4-.95,7.24-2.84,1.84-1.89,2.76-4.38,2.76-7.48s-.92-5.68-2.76-7.6c-1.84-1.92-4.25-2.88-7.24-2.88s-5.53.97-7.48,2.92c-1.95,1.95-2.92,4.47-2.92,7.56s.97,5.52,2.92,7.44c1.95,1.92,4.44,2.88,7.48,2.88Z"/>
            <path class="cls-1" d="M1098.8,450c-5.33,0-9.42-1.67-12.27-5-2.85-3.33-4.28-7.72-4.28-13.15v-26.47h11.99v25.51c0,2.51.75,4.52,2.24,6.04,1.49,1.52,3.41,2.28,5.76,2.28s4.26-.76,5.76-2.28c1.49-1.52,2.24-3.53,2.24-6.04v-25.51h11.99v43.66h-11.19v-5.36c-1.12,2.13-2.75,3.72-4.88,4.76s-4.58,1.56-7.36,1.56Z"/>
            <path class="cls-1" d="M1148.13,450c-4.8,0-8.97-1.13-12.51-3.4-3.55-2.26-5.96-5.32-7.24-9.16l8.8-4.16c1.12,2.35,2.64,4.19,4.56,5.52,1.92,1.33,4.05,2,6.4,2,3.52,0,5.28-1.31,5.28-3.92,0-1.76-1.44-3.04-4.32-3.84l-7.44-2.08c-3.57-1.01-6.32-2.65-8.24-4.92-1.92-2.27-2.88-4.94-2.88-8.04,0-2.72.69-5.09,2.08-7.12,1.39-2.03,3.33-3.61,5.84-4.76,2.5-1.15,5.38-1.72,8.63-1.72,4.26,0,8.01,1,11.23,3,3.22,2,5.5,4.81,6.84,8.44l-8.88,4.16c-.64-1.81-1.8-3.26-3.48-4.36-1.68-1.09-3.58-1.64-5.72-1.64-1.55,0-2.76.32-3.64.96s-1.32,1.52-1.32,2.64c0,1.71,1.57,3.01,4.72,3.92l6.96,2.08c3.62,1.07,6.4,2.68,8.32,4.84,1.92,2.16,2.88,4.81,2.88,7.96,0,4.05-1.55,7.33-4.64,9.83-3.09,2.51-7.17,3.76-12.23,3.76Z"/>
            <path class="cls-1" d="M1193.23,449.52c-5.28,0-9.37-1.43-12.27-4.28-2.91-2.85-4.36-6.84-4.36-11.95v-17.51h-7.36v-10.4h.4c4.64,0,6.96-2.24,6.96-6.72v-3.2h11.99v9.91h10.24v10.4h-10.24v16.71c0,4.42,2.48,6.64,7.44,6.64.75,0,1.68-.08,2.8-.24v10.15c-.8.11-1.71.21-2.72.32-1.01.11-1.97.16-2.88.16Z"/>
          </g>
        </g>
      </g>
    </g>
  </g>
</svg>