<?xml version="1.0" encoding="UTF-8"?>
<svg id="Layer_2" data-name="Layer 2" xmlns="http://www.w3.org/2000/svg" viewBox="0 0 368.6 466.63">
  <defs>
    <style>
      .cls-1 {
        fill: #f2f2f3;
      }
    </style>
  </defs>
  <g id="Layer_1-2" data-name="Layer 1">
    <g>
      <circle class="cls-1" cx="280.41" cy="83.97" r="21.76" transform="translate(95.52 310.9) rotate(-67.5)"/>
      <path class="cls-1" d="M315.14,241c13.65-9.22,25.02-20.78,34.08-34.7,12.93-19.86,19.39-44.03,19.39-72.51s-6.38-53.77-19.11-73.64c-12.75-19.86-30.27-34.85-52.56-44.97C274.63,5.06,249.06,0,220.2,0H59.43v334.94c-.62,10.43-4.32,18.94-11.17,25.5-7.53,7.21-17.46,10.81-29.78,10.81H0v95.38h50.69c21.36,0,39.91-4.24,55.66-12.72,15.74-8.48,27.86-20.35,36.35-35.62,6.97-12.53,11.25-23.53,12.73-53.43.49-9.87,0-39.51,0-39.51v-58.34h64.77c22.02,0,42.18-3.09,60.51-9.25l42.69,35.27-1.49-25.69,28.03.95-34.81-27.29ZM179.46,75.69l-4-.06c.22-13.65,5.74-26.4,15.54-35.9,9.81-9.5,22.73-14.58,36.38-14.4l-.06,4c-.26,0-.51,0-.77,0-12.3,0-23.91,4.7-32.76,13.28-9.04,8.76-14.13,20.51-14.33,33.09ZM258.65,153.88c-28.43,0-51.48-23.05-51.48-51.48s23.05-51.48,51.48-51.48,51.48,23.05,51.48,51.48-23.05,51.48-51.48,51.48Z"/>
    </g>
  </g>
</svg>