<svg width="341" height="382" viewBox="0 0 341 382" fill="none" xmlns="http://www.w3.org/2000/svg">
<g opacity="0.2">
<path d="M39.5566 187.246C43.637 204.375 59.2899 214.54 74.5183 209.95L131.503 192.776C146.732 188.186 155.769 170.58 151.689 153.452L136.42 89.3563C132.339 72.2278 116.686 62.063 101.458 66.6526L44.4726 83.8269C29.2442 88.4165 20.207 106.022 24.2875 123.151L39.5566 187.246Z" fill="#909090"/>
<path d="M16.2488 172.111C20.3292 189.239 35.9821 199.404 51.2105 194.814L108.196 177.64C123.424 173.05 132.461 155.444 128.381 138.316L113.112 74.2205C109.031 57.092 93.3783 46.9272 78.1499 51.5167L21.1648 68.691C5.93642 73.2806 -3.10078 90.8866 0.97965 108.015L16.2488 172.111Z" fill="#282828"/>
<path d="M58.7665 267.883C54.6861 250.754 63.7233 233.148 78.9517 228.559L135.937 211.384C151.165 206.795 166.818 216.96 170.899 234.088L186.168 298.184C190.248 315.312 181.211 332.918 165.982 337.508L108.997 354.682C93.769 359.272 78.1161 349.107 74.0356 331.978L58.7665 267.883Z" fill="#FAFAFA"/>
<path d="M45.3097 294.099C41.2293 276.97 50.2665 259.364 65.4949 254.775L122.48 237.6C137.708 233.011 153.361 243.176 157.442 260.304L172.711 324.4C176.791 341.528 167.754 359.134 152.526 363.724L95.5406 380.898C80.3122 385.488 64.6593 375.323 60.5788 358.194L45.3097 294.099Z" fill="#282828"/>
<path d="M204.55 292.643C208.63 309.772 224.283 319.937 239.512 315.347L296.497 298.173C311.725 293.583 320.762 275.977 316.682 258.849L301.905 196.821C297.825 179.692 282.172 169.527 266.944 174.117L209.959 191.291C194.73 195.881 185.693 213.487 189.773 230.615L204.55 292.643Z" fill="#909090"/>
<path d="M227.858 307.779C231.938 324.908 247.591 335.072 262.82 330.483L319.805 313.308C335.033 308.719 344.07 291.113 339.99 273.984L325.213 211.957C321.133 194.828 305.48 184.663 290.252 189.253L233.266 206.427C218.038 211.017 209.001 228.623 213.081 245.751L227.858 307.779Z" fill="#282828"/>
<path d="M154.802 83.8165C150.721 66.688 159.758 49.082 174.987 44.4924L231.972 27.3181C247.2 22.7285 262.853 32.8933 266.934 50.0218L281.71 112.05C285.791 129.178 276.753 146.784 261.525 151.374L204.54 168.548C189.312 173.138 173.659 162.973 169.578 145.844L154.802 83.8165Z" fill="#FAFAFA"/>
<path d="M168.258 57.6004C164.178 40.4719 173.215 22.8659 188.444 18.2764L245.429 1.10203C260.657 -3.48754 276.31 6.67728 280.39 23.8058L295.167 85.8336C299.247 102.962 290.21 120.568 274.982 125.158L217.997 142.332C202.768 146.922 187.115 136.757 183.035 119.628L168.258 57.6004Z" fill="#282828"/>
</g>
</svg>
