<svg width="187" height="238" viewBox="0 0 187 238" fill="none" xmlns="http://www.w3.org/2000/svg">
<path d="M95.4353 182.535C95.4353 182.535 98.26 181.805 118.455 171.035C138.65 160.264 141.664 136.661 141.948 131.025C142.232 125.389 141.81 113.898 138.432 104.477C135.054 95.0555 127.672 82.0189 110.309 73.4126C92.9455 64.8064 72.2699 66.8604 72.2699 66.8604C72.2699 66.8604 58.6342 58.1693 48.0198 63.4145C37.4053 68.6597 27.1986 84.8876 23.9007 90.3789C20.6028 95.8703 20.3188 104.315 20.3188 104.315C20.3188 104.315 18.4187 106.446 12.2306 107.591C8.15622 108.236 4.01641 108.04 0 107.014L8.36487 112.955L5.75857 123.607C5.75857 123.607 11.4589 116.308 12.864 114.67C14.2691 113.032 22.4228 110.494 22.4228 110.494C22.4228 110.494 23.0562 111.971 26.4997 115.086C29.9432 118.201 39.9097 120.832 57.1928 122.478C74.4758 124.125 80.9114 107.456 82.0107 104.341C83.11 101.226 83.7434 100.097 84.8427 100.097C89.4758 99.816 94.0898 100.974 98.2135 103.452C102.337 105.93 105.823 109.64 108.314 114.203C108.314 114.203 114.014 124.677 109.319 133.622C104.623 142.568 85.2941 153.067 78.6036 157.03C63.9778 165.688 52.9921 182.561 50.1529 206.648C47.3136 230.735 52.9557 237.924 52.9557 237.924C52.9557 237.924 68.2076 196.641 95.4353 182.535Z" fill="#FAFAFA"/>
<path d="M62.628 113.641C65.5596 112.838 67.5654 110.348 67.108 108.08C66.6507 105.812 63.9035 104.625 60.9719 105.429C58.0403 106.232 56.0345 108.722 56.4918 110.99C56.9491 113.258 59.6964 114.445 62.628 113.641Z" fill="#282828"/>
<path d="M176 147.338C182.075 147.338 187 142.452 187 136.424C187 130.397 182.075 125.51 176 125.51C169.925 125.51 165 130.397 165 136.424C165 142.452 169.925 147.338 176 147.338Z" fill="#909090"/>
<path d="M98.9999 26.1935C106.29 26.1935 112.2 20.3299 112.2 13.0967C112.2 5.8636 106.29 0 98.9999 0C91.7097 0 85.7999 5.8636 85.7999 13.0967C85.7999 20.3299 91.7097 26.1935 98.9999 26.1935Z" fill="#909090"/>
</svg>
